<svg width="25" height="26" viewBox="0 0 25 26" fill="none" xmlns="http://www.w3.org/2000/svg">
<path d="M19.3934 8.27293L6.66947 2.67189C6.41488 2.56027 6.12639 2.55428 5.86738 2.65522C5.73938 2.70593 5.62268 2.78146 5.524 2.87746C5.42531 2.97346 5.3466 3.08804 5.29238 3.2146L2.16738 10.5063C2.05856 10.7602 2.05504 11.0469 2.1576 11.3034C2.26016 11.5598 2.46039 11.7651 2.71426 11.874L9.96113 14.9792L8.66947 18.2083H4.16634V15.0833H2.08301V23.4167H4.16634V20.2917H8.66947C9.52676 20.2917 10.2861 19.7771 10.6028 18.9813L11.8757 15.8L15.4372 17.3261C15.6899 17.4347 15.9754 17.4389 16.2312 17.3378C16.4871 17.2367 16.6926 17.0385 16.8028 16.7865L19.9278 9.64376C20.0384 9.39107 20.0442 9.10485 19.944 8.84787C19.8438 8.59088 19.6458 8.38412 19.3934 8.27293ZM20.7601 17.5542L18.8247 16.7813L20.9059 11.5729L22.8413 12.3448L20.7601 17.5542Z" fill="#F8F8F8"/>
</svg>
