<svg width="25" height="26" viewBox="0 0 25 26" fill="none" xmlns="http://www.w3.org/2000/svg">
<path d="M20.8337 14.8229C20.8337 14.6157 20.7513 14.417 20.6048 14.2705C20.4583 14.124 20.2596 14.0417 20.0524 14.0417H16.9274C16.7202 14.0417 16.5215 14.124 16.375 14.2705C16.2285 14.417 16.1462 14.6157 16.1462 14.8229V21.8542H14.5837V4.92709C14.5837 4.16876 14.5816 3.67709 14.5337 3.31668C14.4878 2.97814 14.4139 2.87189 14.3545 2.81251C14.2951 2.75314 14.1889 2.67918 13.8503 2.63334C13.4889 2.58543 12.9982 2.58334 12.2399 2.58334C11.4816 2.58334 10.9899 2.58543 10.6295 2.63334C10.291 2.67918 10.1847 2.75314 10.1253 2.81251C10.066 2.87189 9.99199 2.97814 9.94616 3.31668C9.89824 3.67814 9.89616 4.16876 9.89616 4.92709V21.8542H8.33366V9.61459C8.33366 9.40739 8.25135 9.20868 8.10484 9.06217C7.95832 8.91565 7.75961 8.83334 7.55241 8.83334H4.42741C4.22021 8.83334 4.02149 8.91565 3.87498 9.06217C3.72847 9.20868 3.64616 9.40739 3.64616 9.61459V21.8542H1.82324C1.61604 21.8542 1.41733 21.9365 1.27082 22.083C1.1243 22.2295 1.04199 22.4282 1.04199 22.6354C1.04199 22.8426 1.1243 23.0413 1.27082 23.1879C1.41733 23.3344 1.61604 23.4167 1.82324 23.4167H22.6566C22.8638 23.4167 23.0625 23.3344 23.209 23.1879C23.3555 23.0413 23.4378 22.8426 23.4378 22.6354C23.4378 22.4282 23.3555 22.2295 23.209 22.083C23.0625 21.9365 22.8638 21.8542 22.6566 21.8542H20.8337V14.8229Z" fill="#F8F8F8"/>
</svg>
