<svg width="70" height="70" viewBox="0 0 70 70" fill="none" xmlns="http://www.w3.org/2000/svg">
<path fill-rule="evenodd" clip-rule="evenodd" d="M34.9997 11.6667C30.9186 11.666 26.9086 12.7356 23.3701 14.769C19.8316 16.8023 16.8883 19.7281 14.8339 23.2545C12.7796 26.7808 11.686 30.7843 11.6625 34.8654C11.6389 38.9464 12.6862 42.9623 14.6997 46.5121C16.0607 44.7434 17.8101 43.3113 19.8129 42.3266C21.8156 41.342 24.018 40.831 26.2497 40.8334H43.7497C45.9814 40.831 48.1838 41.342 50.1865 42.3266C52.1893 43.3113 53.9388 44.7434 55.2997 46.5121C57.3132 42.9623 58.3605 38.9464 58.3369 34.8654C58.3134 30.7843 57.2199 26.7808 55.1655 23.2545C53.1111 19.7281 50.1678 16.8023 46.6293 14.769C43.0908 12.7356 39.0808 11.666 34.9997 11.6667ZM58.1668 52.7217C62.0665 47.6379 64.1758 41.4073 64.1664 35C64.1664 18.8913 51.1085 5.83337 34.9997 5.83337C18.891 5.83337 5.83304 18.8913 5.83304 35C5.82341 41.4073 7.93277 47.638 11.8326 52.7217L11.818 52.7742L12.8535 53.9788C15.589 57.1769 18.9854 59.7439 22.8087 61.5027C26.632 63.2616 30.7912 64.1704 34.9997 64.1667C40.9128 64.1776 46.688 62.3814 51.5518 59.0188C53.6253 57.5861 55.5056 55.8922 57.146 53.9788L58.1814 52.7742L58.1668 52.7217ZM34.9997 17.5C32.6791 17.5 30.4535 18.4219 28.8125 20.0629C27.1716 21.7038 26.2497 23.9294 26.2497 26.25C26.2497 28.5707 27.1716 30.7963 28.8125 32.4372C30.4535 34.0782 32.6791 35 34.9997 35C37.3204 35 39.546 34.0782 41.1869 32.4372C42.8278 30.7963 43.7497 28.5707 43.7497 26.25C43.7497 23.9294 42.8278 21.7038 41.1869 20.0629C39.546 18.4219 37.3204 17.5 34.9997 17.5Z" fill="#161A31"/>
</svg>
