<svg width="25" height="26" viewBox="0 0 25 26" fill="none" xmlns="http://www.w3.org/2000/svg">
<path d="M5.20801 4.66666H19.7913C20.0865 4.66666 20.334 4.76666 20.534 4.96666C20.734 5.16666 20.8337 5.41388 20.833 5.70832C20.833 6.00346 20.733 6.25103 20.533 6.45103C20.333 6.65103 20.0858 6.75068 19.7913 6.74999H5.20801C4.91287 6.74999 4.66565 6.64999 4.46634 6.44999C4.26704 6.24999 4.16704 6.00277 4.16634 5.70832C4.16634 5.41318 4.26634 5.16596 4.46634 4.96666C4.66634 4.76735 4.91356 4.66735 5.20801 4.66666ZM5.20801 21.3333C4.91287 21.3333 4.66565 21.2333 4.46634 21.0333C4.26704 20.8333 4.16704 20.5861 4.16634 20.2917V15.0833H3.98405C3.65419 15.0833 3.38509 14.9573 3.17676 14.7052C2.96842 14.4531 2.89898 14.1625 2.96842 13.8333L4.01009 8.62499C4.06217 8.38193 4.1837 8.18228 4.37467 8.02603C4.56565 7.86978 4.78266 7.79166 5.02572 7.79166H19.9736C20.2167 7.79166 20.4337 7.86978 20.6247 8.02603C20.8156 8.18228 20.9372 8.38193 20.9893 8.62499L22.0309 13.8333C22.1004 14.1632 22.0309 14.4538 21.8226 14.7052C21.6143 14.9566 21.3452 15.0826 21.0153 15.0833H20.833V20.2917C20.833 20.5868 20.733 20.8344 20.533 21.0344C20.333 21.2344 20.0858 21.334 19.7913 21.3333C19.4962 21.3333 19.249 21.2333 19.0497 21.0333C18.8504 20.8333 18.7504 20.5861 18.7497 20.2917V15.0833H14.583V20.2917C14.583 20.5868 14.483 20.8344 14.283 21.0344C14.083 21.2344 13.8358 21.334 13.5413 21.3333H5.20801ZM6.24967 19.25H12.4997V15.0833H6.24967V19.25Z" fill="#F8F8F8"/>
</svg>
